{
    "asset" : {
        "generator" : "Khronos glTF Blender I/O v1.5.17",
        "version" : "2.0"
    },
    "scene" : 0,
    "scenes" : [
        {
            "name" : "Scene",
            "nodes" : [
                1
            ]
        }
    ],
    "nodes" : [
        {
            "mesh" : 0,
            "name" : "AB1_OBJ_01",
            "translation" : [
                -3511.33642578125,
                3,
                -3.0517578125e-05
            ]
        },
        {
            "children" : [
                0
            ],
            "name" : "Apartment Building_01",
            "scale" : [
                0.02539999969303608,
                0.02539999969303608,
                0.02539999969303608
            ],
            "translation" : [
                0,
                12.877799987792969,
                0
            ]
        }
    ],
    "materials" : [
        {
            "doubleSided" : true,
            "name" : "Apartment Building_01",
            "pbrMetallicRoughness" : {
                "baseColorFactor" : [
                    0.1296277642250061,
                    0.1296277642250061,
                    0.1296277642250061,
                    1
                ],
                "roughnessFactor" : 0.858578622341156
            }
        },
        {
            "doubleSided" : true,
            "name" : "Lawn",
            "pbrMetallicRoughness" : {
                "baseColorFactor" : [
                    0.011478923261165619,
                    0.19313858449459076,
                    0.00449414225295186,
                    1
                ],
                "metallicFactor" : 0,
                "roughnessFactor" : 0.5
            }
        },
        {
            "doubleSided" : true,
            "name" : "white",
            "pbrMetallicRoughness" : {
                "baseColorFactor" : [
                    0.800000011920929,
                    0.800000011920929,
                    0.800000011920929,
                    1
                ],
                "metallicFactor" : 0,
                "roughnessFactor" : 0.5
            }
        },
        {
            "doubleSided" : true,
            "name" : "yellow",
            "pbrMetallicRoughness" : {
                "baseColorFactor" : [
                    0.8000000715255737,
                    0.5153892040252686,
                    0.034903399646282196,
                    1
                ],
                "metallicFactor" : 0,
                "roughnessFactor" : 0.5
            }
        }
    ],
    "meshes" : [
        {
            "name" : "Mesh",
            "primitives" : [
                {
                    "attributes" : {
                        "POSITION" : 0,
                        "NORMAL" : 1,
                        "TEXCOORD_0" : 2
                    },
                    "indices" : 3,
                    "material" : 0
                },
                {
                    "attributes" : {
                        "POSITION" : 4,
                        "NORMAL" : 5,
                        "TEXCOORD_0" : 6
                    },
                    "indices" : 7,
                    "material" : 1
                },
                {
                    "attributes" : {
                        "POSITION" : 8,
                        "NORMAL" : 9,
                        "TEXCOORD_0" : 10
                    },
                    "indices" : 11,
                    "material" : 2
                },
                {
                    "attributes" : {
                        "POSITION" : 12,
                        "NORMAL" : 13,
                        "TEXCOORD_0" : 14
                    },
                    "indices" : 15,
                    "material" : 3
                }
            ]
        }
    ],
    "accessors" : [
        {
            "bufferView" : 0,
            "componentType" : 5126,
            "count" : 66607,
            "max" : [
                533.5824584960938,
                504.00006103515625,
                306.40728759765625
            ],
            "min" : [
                -465.6806945800781,
                -510.0000305175781,
                -306.4071960449219
            ],
            "type" : "VEC3"
        },
        {
            "bufferView" : 1,
            "componentType" : 5126,
            "count" : 66607,
            "type" : "VEC3"
        },
        {
            "bufferView" : 2,
            "componentType" : 5126,
            "count" : 66607,
            "type" : "VEC2"
        },
        {
            "bufferView" : 3,
            "componentType" : 5125,
            "count" : 89310,
            "type" : "SCALAR"
        },
        {
            "bufferView" : 4,
            "componentType" : 5126,
            "count" : 36,
            "max" : [
                527.58251953125,
                -492,
                306.40716552734375
            ],
            "min" : [
                -461.4380187988281,
                -510,
                -301.2858581542969
            ],
            "type" : "VEC3"
        },
        {
            "bufferView" : 5,
            "componentType" : 5126,
            "count" : 36,
            "type" : "VEC3"
        },
        {
            "bufferView" : 6,
            "componentType" : 5126,
            "count" : 36,
            "type" : "VEC2"
        },
        {
            "bufferView" : 7,
            "componentType" : 5123,
            "count" : 39,
            "type" : "SCALAR"
        },
        {
            "bufferView" : 8,
            "componentType" : 5126,
            "count" : 6462,
            "max" : [
                413.58172607421875,
                504.0001220703125,
                246.40670776367188
            ],
            "min" : [
                -345.6805114746094,
                -510,
                -246.40676879882812
            ],
            "type" : "VEC3"
        },
        {
            "bufferView" : 9,
            "componentType" : 5126,
            "count" : 6462,
            "type" : "VEC3"
        },
        {
            "bufferView" : 10,
            "componentType" : 5126,
            "count" : 6462,
            "type" : "VEC2"
        },
        {
            "bufferView" : 11,
            "componentType" : 5123,
            "count" : 9111,
            "type" : "SCALAR"
        },
        {
            "bufferView" : 12,
            "componentType" : 5126,
            "count" : 128,
            "max" : [
                293.5815734863281,
                120,
                -170.28883361816406
            ],
            "min" : [
                266.5911865234375,
                -492.02337646484375,
                -204.9088134765625
            ],
            "type" : "VEC3"
        },
        {
            "bufferView" : 13,
            "componentType" : 5126,
            "count" : 128,
            "type" : "VEC3"
        },
        {
            "bufferView" : 14,
            "componentType" : 5126,
            "count" : 128,
            "type" : "VEC2"
        },
        {
            "bufferView" : 15,
            "componentType" : 5123,
            "count" : 180,
            "type" : "SCALAR"
        }
    ],
    "bufferViews" : [
        {
            "buffer" : 0,
            "byteLength" : 799284,
            "byteOffset" : 0
        },
        {
            "buffer" : 0,
            "byteLength" : 799284,
            "byteOffset" : 799284
        },
        {
            "buffer" : 0,
            "byteLength" : 532856,
            "byteOffset" : 1598568
        },
        {
            "buffer" : 0,
            "byteLength" : 357240,
            "byteOffset" : 2131424
        },
        {
            "buffer" : 0,
            "byteLength" : 432,
            "byteOffset" : 2488664
        },
        {
            "buffer" : 0,
            "byteLength" : 432,
            "byteOffset" : 2489096
        },
        {
            "buffer" : 0,
            "byteLength" : 288,
            "byteOffset" : 2489528
        },
        {
            "buffer" : 0,
            "byteLength" : 78,
            "byteOffset" : 2489816
        },
        {
            "buffer" : 0,
            "byteLength" : 77544,
            "byteOffset" : 2489896
        },
        {
            "buffer" : 0,
            "byteLength" : 77544,
            "byteOffset" : 2567440
        },
        {
            "buffer" : 0,
            "byteLength" : 51696,
            "byteOffset" : 2644984
        },
        {
            "buffer" : 0,
            "byteLength" : 18222,
            "byteOffset" : 2696680
        },
        {
            "buffer" : 0,
            "byteLength" : 1536,
            "byteOffset" : 2714904
        },
        {
            "buffer" : 0,
            "byteLength" : 1536,
            "byteOffset" : 2716440
        },
        {
            "buffer" : 0,
            "byteLength" : 1024,
            "byteOffset" : 2717976
        },
        {
            "buffer" : 0,
            "byteLength" : 360,
            "byteOffset" : 2719000
        }
    ],
    "buffers" : [
        {
            "byteLength" : 2719360,
            "uri" : "data:application/octet-stream;base64,"
        }
    ]
}
