{
    "asset" : {
        "generator" : "Khronos glTF Blender I/O v1.5.17",
        "version" : "2.0"
    },
    "scene" : 0,
    "scenes" : [
        {
            "name" : "Scene",
            "nodes" : [
                0,
                1
            ]
        }
    ],
    "nodes" : [
        {
            "name" : "Camera",
            "rotation" : [
                0.483536034822464,
                0.33687159419059753,
                -0.20870360732078552,
                0.7804827094078064
            ],
            "translation" : [
                7.358891487121582,
                4.958309173583984,
                6.925790786743164
            ]
        },
        {
            "mesh" : 0,
            "name" : "pPipe43",
            "rotation" : [
                0.7071068286895752,
                0,
                0,
                0.7071067094802856
            ],
            "scale" : [
                0.5,
                0.5,
                0.5
            ]
        }
    ],
    "materials" : [
        {
            "doubleSided" : true,
            "name" : "Blue",
            "pbrMetallicRoughness" : {
                "baseColorFactor" : [
                    0.26515063643455505,
                    0.5591758489608765,
                    1,
                    1
                ],
                "metallicFactor" : 0,
                "roughnessFactor" : 0.5527864098548889
            }
        },
        {
            "doubleSided" : true,
            "name" : "Silver_shade",
            "pbrMetallicRoughness" : {
                "baseColorFactor" : [
                    0.1651638001203537,
                    0.07219274342060089,
                    0.25979891419410706,
                    1
                ],
                "metallicFactor" : 0,
                "roughnessFactor" : 0.5527864098548889
            }
        },
        {
            "doubleSided" : true,
            "name" : "Dark_blue",
            "pbrMetallicRoughness" : {
                "baseColorFactor" : [
                    0.02986649051308632,
                    0.061232198029756546,
                    1,
                    1
                ],
                "metallicFactor" : 0,
                "roughnessFactor" : 0.5527864098548889
            }
        },
        {
            "doubleSided" : true,
            "name" : "Gray",
            "pbrMetallicRoughness" : {
                "baseColorFactor" : [
                    0.03521803393959999,
                    0.03521803393959999,
                    0.03521803393959999,
                    1
                ],
                "metallicFactor" : 0,
                "roughnessFactor" : 0.5527864098548889
            }
        },
        {
            "doubleSided" : true,
            "name" : "lambert1",
            "pbrMetallicRoughness" : {
                "baseColorFactor" : [
                    0.49999991059303284,
                    0.29010093212127686,
                    0.25990086793899536,
                    1
                ],
                "metallicFactor" : 0,
                "roughnessFactor" : 0.5527864098548889
            }
        },
        {
            "doubleSided" : true,
            "name" : "Black1",
            "pbrMetallicRoughness" : {
                "baseColorFactor" : [
                    0,
                    0,
                    0,
                    1
                ],
                "metallicFactor" : 0,
                "roughnessFactor" : 0.5527864098548889
            }
        },
        {
            "doubleSided" : true,
            "name" : "lite_silver",
            "pbrMetallicRoughness" : {
                "baseColorFactor" : [
                    1,
                    0.25200355052948,
                    0.028072236105799675,
                    1
                ],
                "metallicFactor" : 0,
                "roughnessFactor" : 0.5527864098548889
            }
        }
    ],
    "meshes" : [
        {
            "name" : "Mesh",
            "primitives" : [
                {
                    "attributes" : {
                        "POSITION" : 0,
                        "NORMAL" : 1,
                        "TEXCOORD_0" : 2
                    },
                    "indices" : 3,
                    "material" : 0
                },
                {
                    "attributes" : {
                        "POSITION" : 4,
                        "NORMAL" : 5,
                        "TEXCOORD_0" : 6
                    },
                    "indices" : 7,
                    "material" : 1
                },
                {
                    "attributes" : {
                        "POSITION" : 8,
                        "NORMAL" : 9,
                        "TEXCOORD_0" : 10
                    },
                    "indices" : 11,
                    "material" : 2
                },
                {
                    "attributes" : {
                        "POSITION" : 12,
                        "NORMAL" : 13,
                        "TEXCOORD_0" : 14
                    },
                    "indices" : 15,
                    "material" : 3
                },
                {
                    "attributes" : {
                        "POSITION" : 16,
                        "NORMAL" : 17,
                        "TEXCOORD_0" : 18
                    },
                    "indices" : 19,
                    "material" : 4
                },
                {
                    "attributes" : {
                        "POSITION" : 20,
                        "NORMAL" : 21,
                        "TEXCOORD_0" : 22
                    },
                    "indices" : 23,
                    "material" : 5
                },
                {
                    "attributes" : {
                        "POSITION" : 24,
                        "NORMAL" : 25,
                        "TEXCOORD_0" : 26
                    },
                    "indices" : 27,
                    "material" : 6
                }
            ]
        }
    ],
    "accessors" : [
        {
            "bufferView" : 0,
            "componentType" : 5126,
            "count" : 17319,
            "max" : [
                4.570857524871826,
                25.17477798461914,
                5.615864276885986
            ],
            "min" : [
                -4.570857524871826,
                -5.492097854614258,
                -5.09682559967041
            ],
            "type" : "VEC3"
        },
        {
            "bufferView" : 1,
            "componentType" : 5126,
            "count" : 17319,
            "type" : "VEC3"
        },
        {
            "bufferView" : 2,
            "componentType" : 5126,
            "count" : 17319,
            "type" : "VEC2"
        },
        {
            "bufferView" : 3,
            "componentType" : 5123,
            "count" : 57888,
            "type" : "SCALAR"
        },
        {
            "bufferView" : 4,
            "componentType" : 5126,
            "count" : 18628,
            "max" : [
                3.2804770469665527,
                19.62077522277832,
                5.315924644470215
            ],
            "min" : [
                -3.280477285385132,
                -7.573292255401611,
                -5.647163391113281
            ],
            "type" : "VEC3"
        },
        {
            "bufferView" : 5,
            "componentType" : 5126,
            "count" : 18628,
            "type" : "VEC3"
        },
        {
            "bufferView" : 6,
            "componentType" : 5126,
            "count" : 18628,
            "type" : "VEC2"
        },
        {
            "bufferView" : 7,
            "componentType" : 5123,
            "count" : 45276,
            "type" : "SCALAR"
        },
        {
            "bufferView" : 8,
            "componentType" : 5126,
            "count" : 704,
            "max" : [
                4.69132661819458,
                15.265388488769531,
                4.491260528564453
            ],
            "min" : [
                -4.691330909729004,
                12.090877532958984,
                -3.87618088722229
            ],
            "type" : "VEC3"
        },
        {
            "bufferView" : 9,
            "componentType" : 5126,
            "count" : 704,
            "type" : "VEC3"
        },
        {
            "bufferView" : 10,
            "componentType" : 5126,
            "count" : 704,
            "type" : "VEC2"
        },
        {
            "bufferView" : 11,
            "componentType" : 5123,
            "count" : 2748,
            "type" : "SCALAR"
        },
        {
            "bufferView" : 12,
            "componentType" : 5126,
            "count" : 19460,
            "max" : [
                6.810147285461426,
                24.490299224853516,
                6.912117958068848
            ],
            "min" : [
                -7.816349983215332,
                -7.9533305168151855,
                -6.810150146484375
            ],
            "type" : "VEC3"
        },
        {
            "bufferView" : 13,
            "componentType" : 5126,
            "count" : 19460,
            "type" : "VEC3"
        },
        {
            "bufferView" : 14,
            "componentType" : 5126,
            "count" : 19460,
            "type" : "VEC2"
        },
        {
            "bufferView" : 15,
            "componentType" : 5123,
            "count" : 80382,
            "type" : "SCALAR"
        },
        {
            "bufferView" : 16,
            "componentType" : 5126,
            "count" : 2644,
            "max" : [
                3.631840467453003,
                24.38440704345703,
                3.785196304321289
            ],
            "min" : [
                -3.5375640392303467,
                3.5438268184661865,
                -3.6765294075012207
            ],
            "type" : "VEC3"
        },
        {
            "bufferView" : 17,
            "componentType" : 5126,
            "count" : 2644,
            "type" : "VEC3"
        },
        {
            "bufferView" : 18,
            "componentType" : 5126,
            "count" : 2644,
            "type" : "VEC2"
        },
        {
            "bufferView" : 19,
            "componentType" : 5123,
            "count" : 11253,
            "type" : "SCALAR"
        },
        {
            "bufferView" : 20,
            "componentType" : 5126,
            "count" : 6116,
            "max" : [
                4.837987899780273,
                12.0647554397583,
                5.37965202331543
            ],
            "min" : [
                -4.837987899780273,
                2.0547757148742676,
                -5.561282157897949
            ],
            "type" : "VEC3"
        },
        {
            "bufferView" : 21,
            "componentType" : 5126,
            "count" : 6116,
            "type" : "VEC3"
        },
        {
            "bufferView" : 22,
            "componentType" : 5126,
            "count" : 6116,
            "type" : "VEC2"
        },
        {
            "bufferView" : 23,
            "componentType" : 5123,
            "count" : 21924,
            "type" : "SCALAR"
        },
        {
            "bufferView" : 24,
            "componentType" : 5126,
            "count" : 1296,
            "max" : [
                2.533135414123535,
                6.0212249755859375,
                -3.7605676651000977
            ],
            "min" : [
                -2.320089101791382,
                -4.964923858642578,
                -5.391264915466309
            ],
            "type" : "VEC3"
        },
        {
            "bufferView" : 25,
            "componentType" : 5126,
            "count" : 1296,
            "type" : "VEC3"
        },
        {
            "bufferView" : 26,
            "componentType" : 5126,
            "count" : 1296,
            "type" : "VEC2"
        },
        {
            "bufferView" : 27,
            "componentType" : 5123,
            "count" : 7278,
            "type" : "SCALAR"
        }
    ],
    "bufferViews" : [
        {
            "buffer" : 0,
            "byteLength" : 207828,
            "byteOffset" : 0
        },
        {
            "buffer" : 0,
            "byteLength" : 207828,
            "byteOffset" : 207828
        },
        {
            "buffer" : 0,
            "byteLength" : 138552,
            "byteOffset" : 415656
        },
        {
            "buffer" : 0,
            "byteLength" : 115776,
            "byteOffset" : 554208
        },
        {
            "buffer" : 0,
            "byteLength" : 223536,
            "byteOffset" : 669984
        },
        {
            "buffer" : 0,
            "byteLength" : 223536,
            "byteOffset" : 893520
        },
        {
            "buffer" : 0,
            "byteLength" : 149024,
            "byteOffset" : 1117056
        },
        {
            "buffer" : 0,
            "byteLength" : 90552,
            "byteOffset" : 1266080
        },
        {
            "buffer" : 0,
            "byteLength" : 8448,
            "byteOffset" : 1356632
        },
        {
            "buffer" : 0,
            "byteLength" : 8448,
            "byteOffset" : 1365080
        },
        {
            "buffer" : 0,
            "byteLength" : 5632,
            "byteOffset" : 1373528
        },
        {
            "buffer" : 0,
            "byteLength" : 5496,
            "byteOffset" : 1379160
        },
        {
            "buffer" : 0,
            "byteLength" : 233520,
            "byteOffset" : 1384656
        },
        {
            "buffer" : 0,
            "byteLength" : 233520,
            "byteOffset" : 1618176
        },
        {
            "buffer" : 0,
            "byteLength" : 155680,
            "byteOffset" : 1851696
        },
        {
            "buffer" : 0,
            "byteLength" : 160764,
            "byteOffset" : 2007376
        },
        {
            "buffer" : 0,
            "byteLength" : 31728,
            "byteOffset" : 2168140
        },
        {
            "buffer" : 0,
            "byteLength" : 31728,
            "byteOffset" : 2199868
        },
        {
            "buffer" : 0,
            "byteLength" : 21152,
            "byteOffset" : 2231596
        },
        {
            "buffer" : 0,
            "byteLength" : 22506,
            "byteOffset" : 2252748
        },
        {
            "buffer" : 0,
            "byteLength" : 73392,
            "byteOffset" : 2275256
        },
        {
            "buffer" : 0,
            "byteLength" : 73392,
            "byteOffset" : 2348648
        },
        {
            "buffer" : 0,
            "byteLength" : 48928,
            "byteOffset" : 2422040
        },
        {
            "buffer" : 0,
            "byteLength" : 43848,
            "byteOffset" : 2470968
        },
        {
            "buffer" : 0,
            "byteLength" : 15552,
            "byteOffset" : 2514816
        },
        {
            "buffer" : 0,
            "byteLength" : 15552,
            "byteOffset" : 2530368
        },
        {
            "buffer" : 0,
            "byteLength" : 10368,
            "byteOffset" : 2545920
        },
        {
            "buffer" : 0,
            "byteLength" : 14556,
            "byteOffset" : 2556288
        }
    ],
    "buffers" : [
        {
            "byteLength" : 2570844,
            "uri" : "data:application/octet-stream;base64,"
        }
    ]
}
